<?xml version="1.0" standalone="no"?>
<!DOCTYPE svg PUBLIC "-//W3C//DTD SVG 20010904//EN"
 "http://www.w3.org/TR/2001/REC-SVG-20010904/DTD/svg10.dtd">
<svg version="1.0" xmlns="http://www.w3.org/2000/svg"
 width="1502.000000pt" height="862.000000pt" viewBox="0 0 1502.000000 862.000000"
 preserveAspectRatio="xMidYMid meet">
<metadata>
Created by potrace 1.16, written by Peter Selinger 2001-2019
</metadata>
<g transform="translate(0.000000,862.000000) scale(0.100000,-0.100000)"
fill="#000000" stroke="none">
<path d="M976 8438 c-9 -12 -16 -43 -16 -68 0 -58 22 -90 60 -90 18 0 34 8 44
22 21 30 21 121 0 142 -23 24 -70 20 -88 -6z"/>
<path d="M1186 8438 c-9 -12 -16 -43 -16 -68 0 -58 22 -90 60 -90 18 0 34 8
44 22 21 30 21 121 0 142 -23 24 -70 20 -88 -6z"/>
<path d="M1562 4803 l3 -3548 6523 -3 c4346 -1 6522 1 6522 8 0 7 -2175 10
-6515 10 l-6515 0 0 3540 c0 2357 -3 3540 -10 3540 -7 0 -9 -1184 -8 -3547z"/>
<path d="M13220 7370 l0 -190 85 0 c83 0 85 -1 75 -20 -6 -11 -19 -20 -28 -20
-10 0 -23 -5 -30 -12 -17 -17 -15 -63 2 -77 24 -20 69 -9 83 19 10 20 37 34
130 67 l118 42 318 0 317 1 0 190 0 190 -535 0 -535 0 0 -190z m1050 0 l0
-170 -303 0 -303 0 -134 -45 c-74 -25 -138 -45 -142 -45 -5 0 -2 13 7 30 29
56 24 60 -70 60 l-85 0 0 170 0 170 515 0 515 0 0 -170z"/>
<path d="M3830 6905 l0 -185 66 0 66 0 -52 -60 c-40 -46 -58 -60 -79 -60 -34
0 -51 -17 -51 -50 0 -33 17 -50 50 -50 32 0 50 17 50 46 0 18 26 33 165 98
l165 76 260 0 260 0 0 185 0 185 -450 0 -450 0 0 -185z m880 0 l0 -165 -254 0
-253 0 -109 -51 c-60 -28 -133 -62 -162 -75 l-53 -23 29 37 c17 20 42 48 56
61 44 41 35 51 -44 51 l-70 0 0 165 0 165 430 0 430 0 0 -165z"/>
<path d="M1186 6068 c-9 -12 -16 -43 -16 -68 0 -58 22 -90 60 -90 18 0 34 8
44 22 21 30 21 121 0 142 -23 24 -70 20 -88 -6z"/>
<path d="M9860 5895 l0 -185 61 0 61 0 -31 -52 c-16 -29 -36 -56 -43 -59 -44
-20 -53 -29 -56 -53 -4 -35 13 -56 47 -56 34 0 51 17 51 51 0 24 13 35 126 98
l126 71 234 0 234 0 0 185 0 185 -405 0 -405 0 0 -185z m790 0 l0 -165 -227 0
-228 0 -80 -46 c-44 -25 -105 -59 -134 -77 l-55 -31 21 35 c52 85 63 104 63
112 0 4 -29 7 -65 7 l-65 0 0 165 0 165 385 0 385 0 0 -165z"/>
<path d="M437 5493 c-4 -3 -7 -17 -7 -29 0 -19 11 -27 60 -45 33 -12 60 -23
60 -24 0 -1 -27 -12 -61 -24 -55 -21 -60 -25 -57 -49 3 -27 4 -27 91 -30 81
-3 87 -1 87 17 0 17 -8 20 -57 23 l-58 3 58 19 c78 27 76 50 -8 82 l-60 23 63
0 c55 1 62 3 62 21 0 18 -7 20 -83 20 -46 0 -87 -3 -90 -7z"/>
<path d="M8532 5358 c-17 -17 -15 -63 3 -78 9 -8 29 -10 53 -7 29 5 61 -3 142
-33 l105 -39 -82 -1 -83 0 0 -185 0 -185 655 0 655 0 0 185 0 185 -382 0 -382
0 -245 45 c-366 68 -351 64 -351 84 0 25 -20 41 -50 41 -14 0 -31 -5 -38 -12z
m441 -133 l244 -45 371 0 372 0 0 -165 0 -165 -635 0 -635 0 0 165 0 165 105
0 c58 0 105 4 105 9 0 5 -21 17 -47 27 -87 32 -138 53 -131 53 5 1 117 -19
251 -44z"/>
<path d="M484 4936 c-11 -18 -13 -30 -6 -42 5 -9 7 -25 5 -35 -5 -18 2 -19 86
-19 74 0 91 3 91 15 0 9 -9 15 -25 15 -22 0 -25 4 -25 35 0 40 -20 55 -74 55
-27 0 -40 -6 -52 -24z"/>
<path d="M982 4898 c-15 -15 -16 -50 -1 -65 9 -9 8 -16 -5 -28 -35 -36 -13
-75 44 -75 20 0 41 5 48 12 16 16 15 53 -3 68 -12 10 -12 15 1 35 22 34 4 65
-39 65 -18 0 -38 -5 -45 -12z"/>
<path d="M7452 4618 c-7 -7 -12 -24 -12 -38 0 -33 17 -50 50 -50 18 0 37 -13
63 -44 l37 -45 0 -105 0 -106 360 0 360 0 0 185 0 185 -360 0 -360 0 0 -25 c0
-14 -3 -25 -6 -25 -17 0 -44 23 -44 38 0 25 -20 42 -50 42 -14 0 -31 -5 -38
-12z m838 -203 l0 -165 -340 0 -340 0 0 100 c0 94 -1 101 -28 132 -59 70 -59
70 -19 53 47 -20 47 -20 47 15 l0 30 340 0 340 0 0 -165z"/>
<path d="M490 4494 c-19 -22 -16 -70 5 -94 22 -24 77 -27 99 -4 9 8 16 31 16
49 0 18 -7 41 -16 49 -20 21 -88 21 -104 0z"/>
<path d="M7190 4029 c0 -45 -56 -109 -95 -109 -17 0 -36 -5 -43 -12 -17 -17
-15 -63 2 -77 24 -20 69 -9 83 19 6 13 21 28 32 32 20 7 21 4 21 -97 l0 -105
230 0 230 0 0 190 0 190 -230 0 -230 0 0 -31z m440 -159 l0 -170 -210 0 -210
0 0 105 c0 58 -3 105 -8 105 -4 0 -22 -4 -40 -9 -17 -5 -32 -6 -32 -2 0 4 18
25 40 46 28 27 40 48 40 67 l0 28 210 0 210 0 0 -170z"/>
<path d="M484 4026 c-11 -18 -13 -30 -6 -42 5 -9 7 -25 5 -35 -5 -18 2 -19 86
-19 74 0 91 3 91 15 0 9 -9 15 -25 15 -22 0 -25 4 -25 35 0 40 -20 55 -74 55
-27 0 -40 -6 -52 -24z"/>
<path d="M8570 3610 l0 -190 74 0 c72 0 78 -2 167 -54 52 -29 97 -61 101 -70
4 -9 12 -24 17 -33 10 -22 57 -29 77 -12 25 20 14 72 -18 87 -16 7 -28 18 -28
25 0 7 -3 22 -6 35 l-6 22 246 0 246 0 0 190 0 190 -435 0 -435 0 0 -190z
m850 0 l0 -170 -245 0 -245 0 0 -22 c0 -13 5 -40 11 -61 6 -22 9 -40 7 -42 -2
-2 -52 26 -113 61 -105 61 -113 64 -177 64 l-68 0 0 170 0 170 415 0 415 0 0
-170z"/>
<path d="M982 3718 c-15 -15 -16 -50 -1 -65 9 -9 8 -16 -5 -28 -35 -36 -13
-75 44 -75 20 0 41 5 48 12 16 16 15 53 -3 68 -12 10 -12 15 1 35 22 34 4 65
-39 65 -18 0 -38 -5 -45 -12z"/>
<path d="M1186 3708 c-9 -12 -16 -43 -16 -68 0 -58 22 -90 60 -90 18 0 34 8
44 22 21 30 21 121 0 142 -23 24 -70 20 -88 -6z"/>
<path d="M9452 3398 c-7 -7 -12 -24 -12 -38 0 -31 17 -50 45 -50 16 0 30 -19
63 -85 23 -47 42 -87 42 -90 0 -3 -22 -5 -50 -5 l-50 0 0 -190 0 -190 345 0
345 0 0 190 0 190 -198 0 -198 0 -122 102 c-98 82 -122 107 -122 128 0 33 -17
50 -50 50 -14 0 -31 -5 -38 -12z m205 -188 l118 -100 193 0 192 0 0 -170 0
-170 -325 0 -325 0 0 170 0 170 55 0 c31 0 55 5 55 10 0 6 -20 51 -45 100 -25
50 -43 90 -41 90 2 0 58 -45 123 -100z"/>
<path d="M1186 1338 c-9 -12 -16 -43 -16 -68 0 -58 22 -90 60 -90 18 0 34 8
44 22 21 30 21 121 0 142 -23 24 -70 20 -88 -6z"/>
<path d="M1665 970 c-23 -26 -27 -119 -6 -144 17 -20 75 -21 91 -1 19 23 23
105 8 135 -18 34 -67 39 -93 10z"/>
<path d="M3695 970 c-23 -26 -27 -119 -6 -144 17 -20 75 -21 91 -1 19 23 23
105 8 135 -18 34 -67 39 -93 10z"/>
<path d="M3835 970 c-23 -26 -27 -119 -6 -144 17 -20 75 -21 91 -1 19 23 23
105 8 135 -18 34 -67 39 -93 10z"/>
<path d="M6006 968 c-9 -12 -16 -43 -16 -68 0 -58 22 -90 60 -90 18 0 34 8 44
22 21 30 21 121 0 142 -23 24 -70 20 -88 -6z"/>
<path d="M8045 970 c-23 -26 -27 -119 -6 -144 17 -20 75 -21 91 -1 19 23 23
105 8 135 -18 34 -67 39 -93 10z"/>
<path d="M8185 970 c-23 -26 -27 -119 -6 -144 17 -20 75 -21 91 -1 19 23 23
105 8 135 -18 34 -67 39 -93 10z"/>
<path d="M10355 970 c-23 -26 -27 -119 -6 -144 17 -20 75 -21 91 -1 19 23 23
105 8 135 -18 34 -67 39 -93 10z"/>
<path d="M12386 968 c-9 -12 -16 -43 -16 -68 0 -58 22 -90 60 -90 18 0 34 8
44 22 21 30 21 121 0 142 -23 24 -70 20 -88 -6z"/>
<path d="M12526 968 c-9 -12 -16 -43 -16 -68 0 -58 22 -90 60 -90 18 0 34 8
44 22 21 30 21 121 0 142 -23 24 -70 20 -88 -6z"/>
<path d="M14696 968 c-9 -12 -16 -43 -16 -68 0 -58 22 -90 60 -90 18 0 34 8
44 22 21 30 21 121 0 142 -23 24 -70 20 -88 -6z"/>
<path d="M6944 577 c-3 -8 -4 -47 -2 -88 l3 -74 47 -3 c63 -4 98 27 98 88 0
58 -33 90 -95 90 -29 0 -48 -5 -51 -13z"/>
<path d="M8417 583 c-4 -3 -7 -44 -7 -90 0 -76 2 -83 20 -83 18 0 20 7 21 68
l1 67 22 -65 c17 -47 28 -66 42 -68 16 -2 24 8 39 55 l20 58 5 -55 c4 -42 9
-56 23 -58 15 -3 17 6 17 88 l0 91 -26 -3 c-29 -3 -34 -10 -60 -73 -18 -44
-15 -46 -48 38 -11 28 -21 37 -39 37 -13 0 -27 -3 -30 -7z"/>
<path d="M7267 544 c-4 -4 -7 -36 -7 -71 0 -56 2 -63 19 -63 17 0 20 8 23 47
2 36 7 49 21 51 14 3 17 -4 17 -47 0 -44 3 -51 19 -51 17 0 20 8 23 47 2 36 7
49 21 51 14 3 17 -4 17 -47 0 -44 3 -51 20 -51 18 0 20 7 20 54 0 72 -28 103
-69 77 -9 -6 -22 -6 -34 1 -13 7 -27 7 -42 0 -14 -7 -26 -7 -32 -1 -5 5 -12 6
-16 3z"/>
<path d="M7648 538 c-21 -16 -34 -144 -17 -164 14 -18 70 -18 93 -1 11 8 17
23 14 38 -2 20 -9 25 -40 27 -41 3 -52 17 -16 19 27 2 44 20 52 54 5 24 2 27
-25 33 -42 8 -43 8 -61 -6z"/>
<path d="M7957 544 c-4 -4 -7 -47 -7 -96 0 -81 2 -88 20 -88 15 0 20 7 20 28
0 24 4 27 32 27 26 0 35 6 46 28 28 58 -13 122 -63 99 -14 -7 -26 -7 -32 -1
-5 5 -12 6 -16 3z"/>
</g>
</svg>
